<svg width="45" height="45" fill="none" xmlns="http://www.w3.org/2000/svg"><path d="M22.5 0C10.092 0 0 10.092 0 22.5 0 34.907 10.092 45 22.5 45 34.907 45 45 34.907 45 22.5 45 10.092 34.907 0 22.5 0zm-5.004 2.584A50.86 50.86 0 0121.007 15.1a52.89 52.89 0 00-7.428.731c-1.185-3.008-3.26-5.698-5.756-7.675a20.536 20.536 0 019.673-5.573zM43.03 22.496c0 5.117-1.882 9.803-4.99 13.402-4.235-2.94-7.043-7.856-7.043-13.398 0-1.626.239-3.196.682-4.677a50.915 50.915 0 0111.314 3.453c.024.404.037.81.037 1.22zM23.173 17c2.24.03 4.443.203 6.602.513a18.2 18.2 0 00-.692 4.988c0 6.06 3.07 11.496 7.624 14.801A20.459 20.459 0 0122.5 43.027c-1.056 0-2.093-.08-3.106-.235a52.814 52.814 0 003.78-25.793zm19.572 2.084a53.033 53.033 0 00-10.398-3.084 16.512 16.512 0 015.675-6.925 20.467 20.467 0 014.723 10.009zM22.5 1.966c5.505 0 10.511 2.18 14.202 5.72-2.766 1.991-4.995 4.78-6.294 7.984a53.024 53.024 0 00-7.47-.588 52.855 52.855 0 00-3.516-12.885 20.603 20.603 0 013.078-.231zm-10.84 14.23c-3.17.664-6.467 1.716-9.412 2.927A20.45 20.45 0 016.571 9.56c2.153 1.704 4.016 4.083 5.09 6.637zm-9.69 6.3c0-.403.013-.803.036-1.2 3.21-1.402 6.788-2.56 10.295-3.276.407 1.423.624 2.926.624 4.48 0 5.238-2.517 9.942-6.363 12.921A20.433 20.433 0 011.97 22.496zm12.87.004c0-1.672-.225-3.291-.647-4.829 2.303-.379 4.659-.603 7.056-.661.194 1.803.294 3.635.294 5.49 0 7.03-1.487 13.817-4.07 19.903-3.722-.94-7.041-2.9-9.645-5.562 4.218-3.331 7.012-8.548 7.012-14.341z" fill="#9A5CFF"/></svg>